PathFileType  4	(X/Y/Z) C:\Users\antoi\Documents\MyRepositories\mobilecap\ResultsAnalysis
DataRate	CameraRate	NumFrames	NumMarkers	Units	OrigDataRate	OrigDataStartFrame	OrigNumFrames
100.0	100.0	4	51	mm	100.0	1	181
Frame#	Time	r_knee			r_shank_antsup			r_ankle			r_calc			r_5meta			r_toe			L_knee			L_shank_antsup			L_ankle			L_calc			L_5meta			L_toe			r_sh2			r_sh3			r_sh4			L_sh2			L_sh3			r_thigh1			r_thigh2			r_thigh3			r_thigh4			r_thigh5			L_thigh1			L_thigh2			L_thigh3			L_thigh4			r.ASIS			r.PSIS			L.ASIS			L.PSIS			C7			R_Shoulder			L_Shoulder			R_Sternum			L_Sternum			R_humerus			R_elbow_med			R_elbow_lat			R_forearm			R_wrist_radius			R_wrist_ulna			L_humerus			L_elbow_med			L_elbow_lat			L_forearm			L_wrist_radius			L_wrist_ulna			R_HJC			L_HJC			R_HJC_reg			L_HJC_reg			
		X1	Y1	Z1	X2	Y2	Z2	X3	Y3	Z3	X4	Y4	Z4	X5	Y5	Z5	X6	Y6	Z6	X7	Y7	Z7	X8	Y8	Z8	X9	Y9	Z9	X10	Y10	Z10	X11	Y11	Z11	X12	Y12	Z12	X13	Y13	Z13	X14	Y14	Z14	X15	Y15	Z15	X16	Y16	Z16	X17	Y17	Z17	X18	Y18	Z18	X19	Y19	Z19	X20	Y20	Z20	X21	Y21	Z21	X22	Y22	Z22	X23	Y23	Z23	X24	Y24	Z24	X25	Y25	Z25	X26	Y26	Z26	X27	Y27	Z27	X28	Y28	Z28	X29	Y29	Z29	X30	Y30	Z30	X31	Y31	Z31	X32	Y32	Z32	X33	Y33	Z33	X34	Y34	Z34	X35	Y35	Z35	X36	Y36	Z36	X37	Y37	Z37	X38	Y38	Z38	X39	Y39	Z39	X40	Y40	Z40	X41	Y41	Z41	X42	Y42	Z42	X43	Y43	Z43	X44	Y44	Z44	X45	Y45	Z45	X46	Y46	Z46	X47	Y47	Z47	X48	Y48	Z48	X49	Y49	Z49	X50	Y50	Z50	X51	Y51	Z51	

1	0.00000000	41.92209	459.39512	-50.53273	111.52532	364.98579	-73.31995	123.67458	83.76443	-99.07741	82.75425	51.51130	-152.56665	245.66086	51.86442	-81.07619	279.22436	83.38977	-121.61939	-266.07249	447.94411	-334.21644	-286.53645	339.80366	-283.40244	-521.46237	143.03604	-287.75296	-580.58139	136.93688	-238.74991	-445.89295	36.21660	-289.54864	-407.45579	42.30541	-235.56579	134.35333	255.85562	-91.09853	60.83753	343.46369	-20.33456	66.22615	233.68704	-46.23157	-318.18498	378.25812	-354.55802	-394.67382	284.48910	-357.66224	13.08068	770.06908	-51.12683	56.96225	668.72739	-55.14045	25.89275	629.40876	-10.35030	-77.82403	727.93665	-3.61213	-30.41736	623.01028	-3.96764	-93.18750	697.99138	-366.56652	-129.97526	567.78594	-351.26870	-194.50500	727.04486	-399.60237	-235.18946	595.44855	-374.80469	-9.22674	896.00246	-85.94582	-193.62555	942.38494	-150.59358	-13.50766	875.27780	-331.61800	-197.56556	942.35689	-266.78106	-137.80902	1384.15176	-136.04776	-115.92492	1311.95661	10.95371	-47.95990	1377.73735	-284.52137	-25.70425	1307.47466	-110.61847	-15.57835	1315.13049	-153.57950	-139.16760	1179.67282	59.34683	-236.87467	1013.09635	-29.59277	-245.79392	1016.64906	44.24560	-236.53552	891.23947	76.81415	-231.75837	787.25187	87.99012	-271.86800	790.93957	84.60973	-22.01410	1240.02380	-366.81408	-119.91025	1055.50365	-381.19962	-78.75961	1074.44964	-438.94337	-25.96043	988.53367	-456.98126	4.28949	859.73495	-456.67014	-15.01453	857.69015	-482.55033	-105.12026	827.85277	-104.44287	-105.92431	811.43568	-293.10614	-83.69914	817.28223	-117.58974	-89.21486	817.24323	-280.24033	
2	0.01000000	48.14231	460.33109	-50.34197	117.27005	365.18948	-73.62547	125.07106	84.01665	-99.16732	83.48104	52.08539	-152.86190	246.72312	50.03463	-81.39810	280.43691	80.01971	-122.57628	-253.44886	447.52383	-333.41648	-275.89082	339.76697	-283.64717	-514.71327	148.06891	-288.30422	-573.79026	144.73211	-239.53975	-443.93044	37.33170	-289.76839	-405.71093	42.65150	-235.53901	138.52928	255.63033	-91.46767	66.45720	344.14657	-20.49390	70.22017	234.37308	-46.42322	-307.23999	379.64892	-354.07183	-385.52807	287.50477	-357.56733	23.39410	771.18662	-50.82146	66.10843	669.19137	-54.48291	34.18805	630.09890	-9.64345	-68.10517	730.24184	-3.57884	-21.99863	624.91978	-3.51400	-81.96106	698.24728	-365.88358	-117.93310	567.71670	-350.60896	-184.02395	727.09907	-398.16846	-223.26764	594.77905	-373.52829	1.43465	898.11417	-85.69968	-182.95461	944.68157	-151.94053	-1.92005	875.85353	-331.06632	-185.89762	943.70536	-268.07625	-125.77436	1385.09993	-133.01579	-105.69141	1311.29382	13.31711	-34.15495	1379.90429	-280.35645	-14.28648	1307.66946	-107.13260	-3.66872	1315.82608	-149.83120	-129.05960	1178.76645	60.73146	-226.57759	1012.96862	-29.67003	-235.81974	1016.13897	44.11434	-227.00714	890.54119	76.25341	-222.43150	786.56355	87.15622	-262.32727	790.31617	83.30899	-7.96001	1242.31876	-362.99933	-107.74240	1059.14507	-379.81162	-65.66936	1077.92871	-436.95146	-13.40677	991.48007	-455.02974	15.18023	862.19444	-455.43818	-3.95264	860.87449	-481.65224	-94.81729	830.18309	-104.32180	-94.54901	812.43760	-292.85227	-73.57303	819.65066	-117.32941	-77.69335	818.28512	-279.88321	
3	0.02000000	54.26186	461.24195	-50.20874	122.80097	365.35141	-73.91372	126.44447	84.24303	-99.36801	84.15223	52.61019	-153.13484	247.71058	48.35486	-81.72907	281.57104	76.82653	-123.51965	-240.67796	447.13328	-332.72205	-265.04624	339.74130	-283.96286	-507.76035	153.22943	-288.85869	-566.68586	152.65590	-240.33942	-441.85527	38.61020	-289.99096	-403.83400	43.06981	-235.53703	142.54740	255.41133	-91.82655	71.81370	344.79708	-20.68260	74.01642	235.03217	-46.67655	-296.10276	381.04754	-353.64902	-376.20182	290.55187	-357.51771	33.70897	772.30271	-50.62016	75.14579	669.63416	-53.99008	42.46948	630.76088	-9.04620	-58.36634	732.57007	-3.58043	-13.63086	626.82102	-3.15814	-70.72170	698.61152	-365.23033	-105.81778	567.72287	-350.03364	-173.47278	727.13233	-396.78974	-211.30943	594.15570	-372.29588	12.13988	900.27596	-85.53636	-172.21553	947.00622	-153.17445	9.58319	876.51668	-330.56895	-174.28722	945.15191	-269.27443	-113.77912	1386.07699	-129.98548	-95.46585	1310.69459	15.67479	-20.43247	1382.12506	-276.20295	-2.89918	1307.94647	-103.65202	8.20607	1316.60154	-146.09747	-119.00480	1177.94631	62.12039	-216.27658	1012.89280	-29.73767	-225.87136	1015.68842	43.98525	-217.44394	889.91660	75.69882	-213.02774	785.94047	86.33536	-252.75013	789.74597	82.05881	5.99743	1244.72453	-359.25965	-95.61973	1062.87174	-378.48153	-52.61546	1081.48459	-434.99166	-0.88880	994.53058	-453.07007	26.12745	864.79220	-454.13946	7.21738	864.14763	-480.66492	-84.44538	832.55320	-104.20438	-83.24450	813.52866	-292.60484	-63.34778	822.02456	-117.11084	-66.24803	819.43197	-279.54455	
4	0.03000000	60.21168	462.11718	-50.16593	127.96532	365.44743	-74.16377	127.76305	84.43026	-99.74386	84.72363	53.04956	-153.36663	248.56867	46.93145	-82.06649	282.57463	73.95987	-124.42287	-227.64685	446.79317	-332.22837	-253.83877	339.73102	-284.41391	-500.41718	158.61190	-289.43453	-558.99909	160.81180	-241.17131	-439.57273	40.19353	-290.22360	-401.70733	43.62578	-235.58409	146.28670	255.20401	-92.16267	76.73029	345.39707	-20.90591	77.47470	235.64951	-47.01555	-284.61002	382.45002	-353.35417	-366.53217	293.64427	-357.56063	44.01336	773.42056	-50.60309	84.00835	670.05303	-53.78615	50.72593	631.40603	-8.64523	-48.59652	734.93410	-3.63584	-5.33843	628.71069	-2.96148	-59.46083	699.17070	-364.63412	-93.57055	567.86896	-349.62065	-162.81812	727.14920	-395.49946	-199.28734	593.61847	-371.15460	22.91003	902.52014	-85.51204	-161.37089	949.38156	-154.21077	20.93357	877.33965	-330.16894	-162.78169	946.76286	-270.29918	-101.85468	1387.10654	-126.95590	-85.25026	1310.20721	18.02095	-6.86605	1384.44089	-272.07503	8.43637	1308.36876	-100.18709	20.01527	1317.51548	-142.39538	-109.04192	1177.27821	63.51705	-205.96589	1012.90938	-29.79149	-215.96445	1015.34405	43.85524	-207.82235	889.42224	75.15491	-203.49082	785.43472	85.53653	-243.10580	789.26837	80.89140	19.77505	1247.32299	-355.65695	-83.58343	1066.74836	-377.26468	-39.63372	1085.17698	-433.10093	11.57011	997.76353	-451.09790	37.18295	867.63580	-452.71645	18.58684	867.57532	-479.51678	-73.96209	834.98841	-104.09407	-72.06826	814.77719	-292.37031	-52.96845	824.41767	-116.96212	-54.94236	820.75957	-279.23963	
